<?xml version="1.0" encoding="UTF-8" standalone="no"?>
<!DOCTYPE svg PUBLIC "-//W3C//DTD SVG 1.1//EN"
 "http://www.w3.org/Graphics/SVG/1.1/DTD/svg11.dtd">
<!-- Generated by graphviz version 2.40.1 (20161225.0304)
 -->
<!-- Title: dependencies Pages: 1 -->
<svg width="851pt" height="284pt"
 viewBox="0.00 0.00 851.00 284.00" xmlns="http://www.w3.org/2000/svg" xmlns:xlink="http://www.w3.org/1999/xlink">
<g id="graph0" class="graph" transform="scale(1 1) rotate(0) translate(4 280)">
<title>dependencies</title>
<polygon fill="#ffffff" stroke="transparent" points="-4,4 -4,-280 847,-280 847,4 -4,4"/>
<text text-anchor="start" x="400.5091" y="-42.4" font-family="sans-serif" font-weight="bold" font-size="14.00" fill="#000000">Legend</text>
<polygon fill="#ffffb3" stroke="transparent" points="187.5,-10 187.5,-30 207.5,-30 207.5,-10 187.5,-10"/>
<text text-anchor="start" x="211.129" y="-15.4" font-family="sans-serif" font-size="14.00" fill="#000000"> &#160;Declarations</text>
<polygon fill="#8dd3c7" stroke="transparent" points="300.5,-10 300.5,-30 320.5,-30 320.5,-10 300.5,-10"/>
<text text-anchor="start" x="324.2251" y="-15.4" font-family="sans-serif" font-size="14.00" fill="#000000"> &#160;Module</text>
<polygon fill="#80b1d3" stroke="transparent" points="386.5,-10 386.5,-30 406.5,-30 406.5,-10 386.5,-10"/>
<text text-anchor="start" x="410.2812" y="-15.4" font-family="sans-serif" font-size="14.00" fill="#000000"> &#160;Bootstrap</text>
<polygon fill="#fdb462" stroke="transparent" points="483.5,-10 483.5,-30 503.5,-30 503.5,-10 483.5,-10"/>
<text text-anchor="start" x="507.1732" y="-15.4" font-family="sans-serif" font-size="14.00" fill="#000000"> &#160;Providers</text>
<polygon fill="#fb8072" stroke="transparent" points="579.5,-10 579.5,-30 599.5,-30 599.5,-10 579.5,-10"/>
<text text-anchor="start" x="603.2258" y="-15.4" font-family="sans-serif" font-size="14.00" fill="#000000"> &#160;Exports</text>
<g id="clust1" class="cluster">
<title>cluster_AppModule</title>
<polygon fill="none" stroke="#000000" stroke-dasharray="1,5" points="8,-70 8,-268 835,-268 835,-70 8,-70"/>
</g>
<g id="clust2" class="cluster">
<title>cluster_AppModule_declarations</title>
<polygon fill="none" stroke="#000000" points="340,-78 340,-130 827,-130 827,-78 340,-78"/>
</g>
<g id="clust7" class="cluster">
<title>cluster_AppModule_imports</title>
<polygon fill="none" stroke="#000000" points="188,-78 188,-130 332,-130 332,-78 188,-78"/>
</g>
<g id="clust9" class="cluster">
<title>cluster_AppModule_bootstrap</title>
<polygon fill="none" stroke="#000000" points="393,-208 393,-260 517,-260 517,-208 393,-208"/>
</g>
<g id="clust10" class="cluster">
<title>cluster_AppModule_providers</title>
<polygon fill="none" stroke="#000000" points="16,-78 16,-130 180,-130 180,-78 16,-78"/>
</g>
<!-- AppComponent -->
<g id="node1" class="node">
<title>AppComponent</title>
<polygon fill="#ffffb3" stroke="#000000" points="818.9399,-122 713.0601,-122 713.0601,-86 818.9399,-86 818.9399,-122"/>
<text text-anchor="middle" x="766" y="-99.8" font-family="Times,serif" font-size="14.00" fill="#000000">AppComponent</text>
</g>
<!-- AppModule -->
<g id="node5" class="node">
<title>AppModule</title>
<polygon fill="#8dd3c7" stroke="#000000" points="496.6571,-187 493.6571,-191 472.6571,-191 469.6571,-187 413.3429,-187 413.3429,-151 496.6571,-151 496.6571,-187"/>
<text text-anchor="middle" x="455" y="-164.8" font-family="Times,serif" font-size="14.00" fill="#000000">AppModule</text>
</g>
<!-- AppComponent&#45;&gt;AppModule -->
<g id="edge1" class="edge">
<title>AppComponent&#45;&gt;AppModule</title>
<path fill="none" stroke="#000000" d="M766,-122.2843C766,-143.3211 766,-175 766,-175 766,-175 506.9428,-175 506.9428,-175"/>
<polygon fill="#000000" stroke="#000000" points="506.9429,-171.5001 496.9428,-175 506.9428,-178.5001 506.9429,-171.5001"/>
</g>
<!-- InfoHotelesPage -->
<g id="node2" class="node">
<title>InfoHotelesPage</title>
<polygon fill="#ffffb3" stroke="#000000" points="695.795,-122 586.205,-122 586.205,-86 695.795,-86 695.795,-122"/>
<text text-anchor="middle" x="641" y="-99.8" font-family="Times,serif" font-size="14.00" fill="#000000">InfoHotelesPage</text>
</g>
<!-- InfoHotelesPage&#45;&gt;AppModule -->
<g id="edge2" class="edge">
<title>InfoHotelesPage&#45;&gt;AppModule</title>
<path fill="none" stroke="#000000" d="M641,-122.0225C641,-139.3734 641,-163 641,-163 641,-163 506.742,-163 506.742,-163"/>
<polygon fill="#000000" stroke="#000000" points="506.7421,-159.5001 496.742,-163 506.742,-166.5001 506.7421,-159.5001"/>
</g>
<!-- InfoVuelosPage -->
<g id="node3" class="node">
<title>InfoVuelosPage</title>
<polygon fill="#ffffb3" stroke="#000000" points="568.1896,-122 461.8104,-122 461.8104,-86 568.1896,-86 568.1896,-122"/>
<text text-anchor="middle" x="515" y="-99.8" font-family="Times,serif" font-size="14.00" fill="#000000">InfoVuelosPage</text>
</g>
<!-- InfoVuelosPage&#45;&gt;AppModule -->
<g id="edge3" class="edge">
<title>InfoVuelosPage&#45;&gt;AppModule</title>
<path fill="none" stroke="#000000" d="M479.3668,-122.1061C479.3668,-122.1061 479.3668,-140.991 479.3668,-140.991"/>
<polygon fill="#000000" stroke="#000000" points="475.8668,-140.9909 479.3668,-150.991 482.8668,-140.991 475.8668,-140.9909"/>
</g>
<!-- ResumenPage -->
<g id="node4" class="node">
<title>ResumenPage</title>
<polygon fill="#ffffb3" stroke="#000000" points="443.8133,-122 348.1867,-122 348.1867,-86 443.8133,-86 443.8133,-122"/>
<text text-anchor="middle" x="396" y="-99.8" font-family="Times,serif" font-size="14.00" fill="#000000">ResumenPage</text>
</g>
<!-- ResumenPage&#45;&gt;AppModule -->
<g id="edge4" class="edge">
<title>ResumenPage&#45;&gt;AppModule</title>
<path fill="none" stroke="#000000" d="M428.4141,-122.1061C428.4141,-122.1061 428.4141,-140.991 428.4141,-140.991"/>
<polygon fill="#000000" stroke="#000000" points="424.9142,-140.9909 428.4141,-150.991 431.9142,-140.991 424.9142,-140.9909"/>
</g>
<!-- AppComponent  -->
<g id="node7" class="node">
<title>AppComponent </title>
<polygon fill="#80b1d3" stroke="#000000" points="509.439,-252 400.561,-252 400.561,-216 509.439,-216 509.439,-252"/>
<text text-anchor="middle" x="455" y="-229.8" font-family="Times,serif" font-size="14.00" fill="#000000">AppComponent </text>
</g>
<!-- AppModule&#45;&gt;AppComponent  -->
<g id="edge6" class="edge">
<title>AppModule&#45;&gt;AppComponent </title>
<path fill="none" stroke="#000000" stroke-dasharray="1,5" d="M455,-187.1061C455,-187.1061 455,-205.991 455,-205.991"/>
<polygon fill="#000000" stroke="#000000" points="451.5001,-205.9909 455,-215.991 458.5001,-205.991 451.5001,-205.9909"/>
</g>
<!-- AppRoutingModule -->
<g id="node6" class="node">
<title>AppRoutingModule</title>
<polygon fill="#8dd3c7" stroke="#000000" points="324.2744,-122 321.2744,-126 300.2744,-126 297.2744,-122 195.7256,-122 195.7256,-86 324.2744,-86 324.2744,-122"/>
<text text-anchor="middle" x="260" y="-99.8" font-family="Times,serif" font-size="14.00" fill="#000000">AppRoutingModule</text>
</g>
<!-- AppRoutingModule&#45;&gt;AppModule -->
<g id="edge5" class="edge">
<title>AppRoutingModule&#45;&gt;AppModule</title>
<path fill="none" stroke="#000000" d="M260,-122.0225C260,-139.3734 260,-163 260,-163 260,-163 403.1676,-163 403.1676,-163"/>
<polygon fill="#000000" stroke="#000000" points="403.1676,-166.5001 413.1676,-163 403.1676,-159.5001 403.1676,-166.5001"/>
</g>
<!-- NetworkService -->
<g id="node8" class="node">
<title>NetworkService</title>
<ellipse fill="#fdb462" stroke="#000000" cx="98" cy="-104" rx="73.5541" ry="18"/>
<text text-anchor="middle" x="98" y="-99.8" font-family="Times,serif" font-size="14.00" fill="#000000">NetworkService</text>
</g>
<!-- NetworkService&#45;&gt;AppModule -->
<g id="edge7" class="edge">
<title>NetworkService&#45;&gt;AppModule</title>
<path fill="none" stroke="#000000" d="M98,-122.2843C98,-143.3211 98,-175 98,-175 98,-175 402.9978,-175 402.9978,-175"/>
<polygon fill="#000000" stroke="#000000" points="402.9978,-178.5001 412.9978,-175 402.9977,-171.5001 402.9978,-178.5001"/>
</g>
</g>
</svg>
