<?xml version="1.0" encoding="UTF-8" standalone="no"?>
<!DOCTYPE svg PUBLIC "-//W3C//DTD SVG 1.1//EN"
 "http://www.w3.org/Graphics/SVG/1.1/DTD/svg11.dtd">
<!-- Generated by graphviz version 2.40.1 (20161225.0304)
 -->
<!-- Title: dependencies Pages: 1 -->
<svg width="1801pt" height="284pt"
 viewBox="0.00 0.00 1801.00 284.00" xmlns="http://www.w3.org/2000/svg" xmlns:xlink="http://www.w3.org/1999/xlink">
<g id="graph0" class="graph" transform="scale(1 1) rotate(0) translate(4 280)">
<title>dependencies</title>
<polygon fill="#ffffff" stroke="transparent" points="-4,4 -4,-280 1797,-280 1797,4 -4,4"/>
<text text-anchor="start" x="875.5091" y="-42.4" font-family="sans-serif" font-weight="bold" font-size="14.00" fill="#000000">Legend</text>
<polygon fill="#ffffb3" stroke="transparent" points="662.5,-10 662.5,-30 682.5,-30 682.5,-10 662.5,-10"/>
<text text-anchor="start" x="686.129" y="-15.4" font-family="sans-serif" font-size="14.00" fill="#000000"> &#160;Declarations</text>
<polygon fill="#8dd3c7" stroke="transparent" points="775.5,-10 775.5,-30 795.5,-30 795.5,-10 775.5,-10"/>
<text text-anchor="start" x="799.2251" y="-15.4" font-family="sans-serif" font-size="14.00" fill="#000000"> &#160;Module</text>
<polygon fill="#80b1d3" stroke="transparent" points="861.5,-10 861.5,-30 881.5,-30 881.5,-10 861.5,-10"/>
<text text-anchor="start" x="885.2812" y="-15.4" font-family="sans-serif" font-size="14.00" fill="#000000"> &#160;Bootstrap</text>
<polygon fill="#fdb462" stroke="transparent" points="958.5,-10 958.5,-30 978.5,-30 978.5,-10 958.5,-10"/>
<text text-anchor="start" x="982.1732" y="-15.4" font-family="sans-serif" font-size="14.00" fill="#000000"> &#160;Providers</text>
<polygon fill="#fb8072" stroke="transparent" points="1054.5,-10 1054.5,-30 1074.5,-30 1074.5,-10 1054.5,-10"/>
<text text-anchor="start" x="1078.2258" y="-15.4" font-family="sans-serif" font-size="14.00" fill="#000000"> &#160;Exports</text>
<g id="clust1" class="cluster">
<title>cluster_AppModule</title>
<polygon fill="none" stroke="#000000" stroke-dasharray="1,5" points="8,-70 8,-268 835,-268 835,-70 8,-70"/>
</g>
<g id="clust2" class="cluster">
<title>cluster_AppModule_declarations</title>
<polygon fill="none" stroke="#000000" points="340,-78 340,-130 827,-130 827,-78 340,-78"/>
</g>
<g id="clust7" class="cluster">
<title>cluster_AppModule_imports</title>
<polygon fill="none" stroke="#000000" points="188,-78 188,-130 332,-130 332,-78 188,-78"/>
</g>
<g id="clust9" class="cluster">
<title>cluster_AppModule_bootstrap</title>
<polygon fill="none" stroke="#000000" points="401,-208 401,-260 525,-260 525,-208 401,-208"/>
</g>
<g id="clust10" class="cluster">
<title>cluster_AppModule_providers</title>
<polygon fill="none" stroke="#000000" points="16,-78 16,-130 180,-130 180,-78 16,-78"/>
</g>
<g id="clust17" class="cluster">
<title>cluster_ContactoPageModule</title>
<polygon fill="none" stroke="#000000" stroke-dasharray="1,5" points="1355,-70 1355,-195 1509,-195 1509,-70 1355,-70"/>
</g>
<g id="clust18" class="cluster">
<title>cluster_ContactoPageModule_declarations</title>
<polygon fill="none" stroke="#000000" points="1377,-78 1377,-130 1487,-130 1487,-78 1377,-78"/>
</g>
<g id="clust30" class="cluster">
<title>cluster_HomePageModule</title>
<polygon fill="none" stroke="#000000" stroke-dasharray="1,5" points="1517,-70 1517,-195 1653,-195 1653,-70 1517,-70"/>
</g>
<g id="clust31" class="cluster">
<title>cluster_HomePageModule_declarations</title>
<polygon fill="none" stroke="#000000" points="1538,-78 1538,-130 1632,-130 1632,-78 1538,-78"/>
</g>
<g id="clust37" class="cluster">
<title>cluster_InfoHotelesPageModule</title>
<polygon fill="none" stroke="#000000" stroke-dasharray="1,5" points="843,-143 843,-195 1011,-195 1011,-143 843,-143"/>
</g>
<g id="clust44" class="cluster">
<title>cluster_InfoVuelosPageModule</title>
<polygon fill="none" stroke="#000000" stroke-dasharray="1,5" points="1019,-143 1019,-195 1185,-195 1185,-143 1019,-143"/>
</g>
<g id="clust51" class="cluster">
<title>cluster_ListPageModule</title>
<polygon fill="none" stroke="#000000" stroke-dasharray="1,5" points="1661,-70 1661,-195 1785,-195 1785,-70 1661,-70"/>
</g>
<g id="clust52" class="cluster">
<title>cluster_ListPageModule_declarations</title>
<polygon fill="none" stroke="#000000" points="1683,-78 1683,-130 1763,-130 1763,-78 1683,-78"/>
</g>
<g id="clust58" class="cluster">
<title>cluster_ResumenPageModule</title>
<polygon fill="none" stroke="#000000" stroke-dasharray="1,5" points="1193,-143 1193,-195 1347,-195 1347,-143 1193,-143"/>
</g>
<!-- AppComponent -->
<g id="node1" class="node">
<title>AppComponent</title>
<polygon fill="#ffffb3" stroke="#000000" points="453.9399,-122 348.0601,-122 348.0601,-86 453.9399,-86 453.9399,-122"/>
<text text-anchor="middle" x="401" y="-99.8" font-family="Times,serif" font-size="14.00" fill="#000000">AppComponent</text>
</g>
<!-- AppModule -->
<g id="node5" class="node">
<title>AppModule</title>
<polygon fill="#8dd3c7" stroke="#000000" points="504.6571,-187 501.6571,-191 480.6571,-191 477.6571,-187 421.3429,-187 421.3429,-151 504.6571,-151 504.6571,-187"/>
<text text-anchor="middle" x="463" y="-164.8" font-family="Times,serif" font-size="14.00" fill="#000000">AppModule</text>
</g>
<!-- AppComponent&#45;&gt;AppModule -->
<g id="edge1" class="edge">
<title>AppComponent&#45;&gt;AppModule</title>
<path fill="none" stroke="#000000" d="M437.4457,-122.1061C437.4457,-122.1061 437.4457,-140.991 437.4457,-140.991"/>
<polygon fill="#000000" stroke="#000000" points="433.9457,-140.9909 437.4457,-150.991 440.9457,-140.991 433.9457,-140.9909"/>
</g>
<!-- InfoHotelesPage -->
<g id="node2" class="node">
<title>InfoHotelesPage</title>
<polygon fill="#ffffb3" stroke="#000000" points="580.795,-122 471.205,-122 471.205,-86 580.795,-86 580.795,-122"/>
<text text-anchor="middle" x="526" y="-99.8" font-family="Times,serif" font-size="14.00" fill="#000000">InfoHotelesPage</text>
</g>
<!-- InfoHotelesPage&#45;&gt;AppModule -->
<g id="edge2" class="edge">
<title>InfoHotelesPage&#45;&gt;AppModule</title>
<path fill="none" stroke="#000000" d="M488.0905,-122.1061C488.0905,-122.1061 488.0905,-140.991 488.0905,-140.991"/>
<polygon fill="#000000" stroke="#000000" points="484.5905,-140.9909 488.0905,-150.991 491.5905,-140.991 484.5905,-140.9909"/>
</g>
<!-- InfoHotelesPageModule -->
<g id="node13" class="node">
<title>InfoHotelesPageModule</title>
<polygon fill="#8dd3c7" stroke="#000000" points="1003.3445,-187 1000.3445,-191 979.3445,-191 976.3445,-187 850.6555,-187 850.6555,-151 1003.3445,-151 1003.3445,-187"/>
<text text-anchor="middle" x="927" y="-164.8" font-family="Times,serif" font-size="14.00" fill="#000000">InfoHotelesPageModule</text>
</g>
<!-- InfoHotelesPage&#45;&gt;InfoHotelesPageModule -->
<g id="edge10" class="edge">
<title>InfoHotelesPage&#45;&gt;InfoHotelesPageModule</title>
<path fill="none" stroke="#000000" d="M549.0584,-122.027C549.0584,-138.3976 549.0584,-160 549.0584,-160 549.0584,-160 840.5179,-160 840.5179,-160"/>
<polygon fill="#000000" stroke="#000000" points="840.5179,-163.5001 850.5179,-160 840.5178,-156.5001 840.5179,-163.5001"/>
</g>
<!-- InfoVuelosPage -->
<g id="node3" class="node">
<title>InfoVuelosPage</title>
<polygon fill="#ffffb3" stroke="#000000" points="705.1896,-122 598.8104,-122 598.8104,-86 705.1896,-86 705.1896,-122"/>
<text text-anchor="middle" x="652" y="-99.8" font-family="Times,serif" font-size="14.00" fill="#000000">InfoVuelosPage</text>
</g>
<!-- InfoVuelosPage&#45;&gt;AppModule -->
<g id="edge3" class="edge">
<title>InfoVuelosPage&#45;&gt;AppModule</title>
<path fill="none" stroke="#000000" d="M669.6982,-122.1061C669.6982,-141.3391 669.6982,-169 669.6982,-169 669.6982,-169 514.8285,-169 514.8285,-169"/>
<polygon fill="#000000" stroke="#000000" points="514.8285,-165.5001 504.8285,-169 514.8284,-172.5001 514.8285,-165.5001"/>
</g>
<!-- InfoVuelosPageModule -->
<g id="node14" class="node">
<title>InfoVuelosPageModule</title>
<polygon fill="#8dd3c7" stroke="#000000" points="1176.7394,-187 1173.7394,-191 1152.7394,-191 1149.7394,-187 1027.2606,-187 1027.2606,-151 1176.7394,-151 1176.7394,-187"/>
<text text-anchor="middle" x="1102" y="-164.8" font-family="Times,serif" font-size="14.00" fill="#000000">InfoVuelosPageModule</text>
</g>
<!-- InfoVuelosPage&#45;&gt;InfoVuelosPageModule -->
<g id="edge11" class="edge">
<title>InfoVuelosPage&#45;&gt;InfoVuelosPageModule</title>
<path fill="none" stroke="#000000" d="M634.3018,-122.0449C634.3018,-129.749 634.3018,-137 634.3018,-137 634.3018,-137 1102,-137 1102,-137 1102,-137 1102,-140.7566 1102,-140.7566"/>
<polygon fill="#000000" stroke="#000000" points="1098.5001,-140.7566 1102,-150.7566 1105.5001,-140.7566 1098.5001,-140.7566"/>
</g>
<!-- ResumenPage -->
<g id="node4" class="node">
<title>ResumenPage</title>
<polygon fill="#ffffb3" stroke="#000000" points="818.8133,-122 723.1867,-122 723.1867,-86 818.8133,-86 818.8133,-122"/>
<text text-anchor="middle" x="771" y="-99.8" font-family="Times,serif" font-size="14.00" fill="#000000">ResumenPage</text>
</g>
<!-- ResumenPage&#45;&gt;AppModule -->
<g id="edge4" class="edge">
<title>ResumenPage&#45;&gt;AppModule</title>
<path fill="none" stroke="#000000" d="M771,-122.2921C771,-144.2057 771,-178 771,-178 771,-178 514.8588,-178 514.8588,-178"/>
<polygon fill="#000000" stroke="#000000" points="514.8588,-174.5001 504.8588,-178 514.8588,-181.5001 514.8588,-174.5001"/>
</g>
<!-- ResumenPageModule -->
<g id="node17" class="node">
<title>ResumenPageModule</title>
<polygon fill="#8dd3c7" stroke="#000000" points="1339.3627,-187 1336.3627,-191 1315.3627,-191 1312.3627,-187 1200.6373,-187 1200.6373,-151 1339.3627,-151 1339.3627,-187"/>
<text text-anchor="middle" x="1270" y="-164.8" font-family="Times,serif" font-size="14.00" fill="#000000">ResumenPageModule</text>
</g>
<!-- ResumenPage&#45;&gt;ResumenPageModule -->
<g id="edge13" class="edge">
<title>ResumenPage&#45;&gt;ResumenPageModule</title>
<path fill="none" stroke="#000000" d="M818.8462,-104C943.7419,-104 1270,-104 1270,-104 1270,-104 1270,-140.8939 1270,-140.8939"/>
<polygon fill="#000000" stroke="#000000" points="1266.5001,-140.8938 1270,-150.8939 1273.5001,-140.8939 1266.5001,-140.8938"/>
</g>
<!-- AppComponent  -->
<g id="node7" class="node">
<title>AppComponent </title>
<polygon fill="#80b1d3" stroke="#000000" points="517.439,-252 408.561,-252 408.561,-216 517.439,-216 517.439,-252"/>
<text text-anchor="middle" x="463" y="-229.8" font-family="Times,serif" font-size="14.00" fill="#000000">AppComponent </text>
</g>
<!-- AppModule&#45;&gt;AppComponent  -->
<g id="edge6" class="edge">
<title>AppModule&#45;&gt;AppComponent </title>
<path fill="none" stroke="#000000" stroke-dasharray="1,5" d="M463,-187.1061C463,-187.1061 463,-205.991 463,-205.991"/>
<polygon fill="#000000" stroke="#000000" points="459.5001,-205.9909 463,-215.991 466.5001,-205.991 459.5001,-205.9909"/>
</g>
<!-- AppRoutingModule -->
<g id="node6" class="node">
<title>AppRoutingModule</title>
<polygon fill="#8dd3c7" stroke="#000000" points="324.2744,-122 321.2744,-126 300.2744,-126 297.2744,-122 195.7256,-122 195.7256,-86 324.2744,-86 324.2744,-122"/>
<text text-anchor="middle" x="260" y="-99.8" font-family="Times,serif" font-size="14.00" fill="#000000">AppRoutingModule</text>
</g>
<!-- AppRoutingModule&#45;&gt;AppModule -->
<g id="edge5" class="edge">
<title>AppRoutingModule&#45;&gt;AppModule</title>
<path fill="none" stroke="#000000" d="M260,-122.0225C260,-139.3734 260,-163 260,-163 260,-163 410.9383,-163 410.9383,-163"/>
<polygon fill="#000000" stroke="#000000" points="410.9383,-166.5001 420.9383,-163 410.9382,-159.5001 410.9383,-166.5001"/>
</g>
<!-- NetworkService -->
<g id="node8" class="node">
<title>NetworkService</title>
<ellipse fill="#fdb462" stroke="#000000" cx="98" cy="-104" rx="73.5541" ry="18"/>
<text text-anchor="middle" x="98" y="-99.8" font-family="Times,serif" font-size="14.00" fill="#000000">NetworkService</text>
</g>
<!-- NetworkService&#45;&gt;AppModule -->
<g id="edge7" class="edge">
<title>NetworkService&#45;&gt;AppModule</title>
<path fill="none" stroke="#000000" d="M98,-122.2843C98,-143.3211 98,-175 98,-175 98,-175 411.1299,-175 411.1299,-175"/>
<polygon fill="#000000" stroke="#000000" points="411.1299,-178.5001 421.1299,-175 411.1298,-171.5001 411.1299,-178.5001"/>
</g>
<!-- ContactoPage -->
<g id="node9" class="node">
<title>ContactoPage</title>
<polygon fill="#ffffb3" stroke="#000000" points="1478.7591,-122 1385.2409,-122 1385.2409,-86 1478.7591,-86 1478.7591,-122"/>
<text text-anchor="middle" x="1432" y="-99.8" font-family="Times,serif" font-size="14.00" fill="#000000">ContactoPage</text>
</g>
<!-- ContactoPageModule -->
<g id="node10" class="node">
<title>ContactoPageModule</title>
<polygon fill="#8dd3c7" stroke="#000000" points="1500.8089,-187 1497.8089,-191 1476.8089,-191 1473.8089,-187 1363.1911,-187 1363.1911,-151 1500.8089,-151 1500.8089,-187"/>
<text text-anchor="middle" x="1432" y="-164.8" font-family="Times,serif" font-size="14.00" fill="#000000">ContactoPageModule</text>
</g>
<!-- ContactoPage&#45;&gt;ContactoPageModule -->
<g id="edge8" class="edge">
<title>ContactoPage&#45;&gt;ContactoPageModule</title>
<path fill="none" stroke="#000000" d="M1432,-122.1061C1432,-122.1061 1432,-140.991 1432,-140.991"/>
<polygon fill="#000000" stroke="#000000" points="1428.5001,-140.9909 1432,-150.991 1435.5001,-140.991 1428.5001,-140.9909"/>
</g>
<!-- HomePage -->
<g id="node11" class="node">
<title>HomePage</title>
<polygon fill="#ffffb3" stroke="#000000" points="1623.9248,-122 1546.0752,-122 1546.0752,-86 1623.9248,-86 1623.9248,-122"/>
<text text-anchor="middle" x="1585" y="-99.8" font-family="Times,serif" font-size="14.00" fill="#000000">HomePage</text>
</g>
<!-- HomePageModule -->
<g id="node12" class="node">
<title>HomePageModule</title>
<polygon fill="#8dd3c7" stroke="#000000" points="1645.4734,-187 1642.4734,-191 1621.4734,-191 1618.4734,-187 1524.5266,-187 1524.5266,-151 1645.4734,-151 1645.4734,-187"/>
<text text-anchor="middle" x="1585" y="-164.8" font-family="Times,serif" font-size="14.00" fill="#000000">HomePageModule</text>
</g>
<!-- HomePage&#45;&gt;HomePageModule -->
<g id="edge9" class="edge">
<title>HomePage&#45;&gt;HomePageModule</title>
<path fill="none" stroke="#000000" d="M1585,-122.1061C1585,-122.1061 1585,-140.991 1585,-140.991"/>
<polygon fill="#000000" stroke="#000000" points="1581.5001,-140.9909 1585,-150.991 1588.5001,-140.991 1581.5001,-140.9909"/>
</g>
<!-- ListPage -->
<g id="node15" class="node">
<title>ListPage</title>
<polygon fill="#ffffb3" stroke="#000000" points="1755.4902,-122 1690.5098,-122 1690.5098,-86 1755.4902,-86 1755.4902,-122"/>
<text text-anchor="middle" x="1723" y="-99.8" font-family="Times,serif" font-size="14.00" fill="#000000">ListPage</text>
</g>
<!-- ListPageModule -->
<g id="node16" class="node">
<title>ListPageModule</title>
<polygon fill="#8dd3c7" stroke="#000000" points="1777.041,-187 1774.041,-191 1753.041,-191 1750.041,-187 1668.959,-187 1668.959,-151 1777.041,-151 1777.041,-187"/>
<text text-anchor="middle" x="1723" y="-164.8" font-family="Times,serif" font-size="14.00" fill="#000000">ListPageModule</text>
</g>
<!-- ListPage&#45;&gt;ListPageModule -->
<g id="edge12" class="edge">
<title>ListPage&#45;&gt;ListPageModule</title>
<path fill="none" stroke="#000000" d="M1723,-122.1061C1723,-122.1061 1723,-140.991 1723,-140.991"/>
<polygon fill="#000000" stroke="#000000" points="1719.5001,-140.9909 1723,-150.991 1726.5001,-140.991 1719.5001,-140.9909"/>
</g>
</g>
</svg>
